Coordinates
version=1
nRows=33
nColumns=30
inDegrees=yes

Units are S.I. units (second, meters, Newtons, ...)
Angles are in degrees.

endheader
time	floatyaw	floatroll	floatpitch	floatx	floaty	floatz	pro_sup_l	deviation_l	flexion_l	cmc_flexion_l	cmc_abduction_l	mp_flexion_l	ip_flexion_l	2mcp_flexion_l	2mcp_abduction_l	2pm_flexion_l	2md_flexion_l	3mcp_flexion_l	3mcp_abduction_l	3pm_flexion_l	3md_flexion_l	4mcp_flexion_l	4mcp_abduction_l	4pm_flexion_l	4md_flexion_l	5mcp_flexion_l	5mcp_abduction_l	5pm_flexion_l	5md_flexion_l
-0.995000	-4.367428	-0.612882	99.545687	-0.103125	-0.193649	-0.016665	88.898496	-0.096470	-0.214161	15.976153	6.274387	-22.338448	-35.186109	37.468065	7.935190	47.572087	32.989111	21.877494	4.642165	48.339205	32.306025	10.816826	-4.660753	62.790533	42.184222	6.032004	-8.066347	61.428130	41.309725
-0.985000	-4.367428	-0.612882	99.545687	-0.103116	-0.193657	-0.016652	88.895421	-0.099428	-0.221664	15.967575	6.248980	-22.361036	-35.209484	37.457078	7.920476	47.585876	32.997674	21.868903	4.646496	48.345825	32.316134	10.793047	-4.656718	62.804178	42.201231	6.079949	-8.075825	61.379143	41.279817
-0.975000	-4.367428	-0.612882	99.545687	-0.103109	-0.193667	-0.016644	88.892160	-0.101408	-0.230203	15.960460	6.221351	-22.372667	-35.223988	37.448879	7.910808	47.608650	33.013729	21.863796	4.652309	48.355263	32.329343	10.778726	-4.657385	62.810626	42.215421	6.125847	-8.075497	61.334561	41.254872
-0.965000	-4.367428	-0.612882	99.545687	-0.103103	-0.193680	-0.016645	88.892723	-0.100274	-0.240296	15.957746	6.197431	-22.372442	-35.228097	37.443249	7.907994	47.645283	33.039113	21.863518	4.658738	48.371304	32.347702	10.781812	-4.664363	62.811677	42.226379	6.166351	-8.061832	61.302169	41.239899
-0.955000	-4.367428	-0.612882	99.545687	-0.103096	-0.193695	-0.016654	88.901340	-0.092958	-0.253333	15.961127	6.180263	-22.364604	-35.224641	37.437965	7.911344	47.695615	33.072357	21.867596	4.665295	48.393720	32.370659	10.806436	-4.677752	62.810996	42.234539	6.198269	-8.034451	61.290114	41.238504
-0.945000	-4.367428	-0.612882	99.545687	-0.103087	-0.193712	-0.016669	88.920394	-0.077416	-0.270755	15.970654	6.168330	-22.356531	-35.219494	37.431350	7.918659	47.754417	33.108938	21.874440	4.671863	48.418542	32.394965	10.851879	-4.696184	62.812692	42.240764	6.220547	-7.996820	61.304108	41.251452
-0.935000	-4.367428	-0.612882	99.545687	-0.103074	-0.193730	-0.016688	88.948812	-0.054314	-0.292809	15.984724	6.156997	-22.354666	-35.218473	37.424486	7.927753	47.813781	33.142968	21.882737	4.678281	48.440823	32.416181	10.912964	-4.717395	62.819939	42.245979	6.235786	-7.955576	61.344046	41.275696
-0.925000	-4.367428	-0.612882	99.545687	-0.103059	-0.193746	-0.016706	88.982034	-0.027102	-0.317879	16.000420	6.142081	-22.360942	-35.224289	37.421102	7.937451	47.866459	33.169483	21.892626	4.683829	48.458084	32.431006	10.981421	-4.738937	62.833883	42.250860	6.249571	-7.918414	61.402386	41.304853
-0.915000	-4.367428	-0.612882	99.545687	-0.103042	-0.193759	-0.016720	89.013780	-0.000305	-0.342854	16.014319	6.123039	-22.372115	-35.235468	37.424917	7.947477	47.908518	33.186275	21.905638	4.687064	48.471972	32.438988	11.047555	-4.758567	62.853074	42.255604	6.267553	-7.891421	61.466137	41.331471
-0.905000	-4.367428	-0.612882	99.545687	-0.103023	-0.193767	-0.016729	89.038705	0.022834	-0.364142	16.023601	6.103455	-22.382487	-35.247899	37.436286	7.957491	47.940125	33.194449	21.923077	4.686280	48.486695	32.442518	11.101774	-4.774280	62.873786	42.259948	6.292142	-7.877226	61.521882	41.350115
-0.895000	-4.367428	-0.612882	99.545687	-0.103006	-0.193768	-0.016738	89.054360	0.041764	-0.378629	16.026976	6.088498	-22.388130	-35.257893	37.450697	7.966191	47.964242	33.197446	21.943849	4.680418	48.505224	32.445071	11.136121	-4.784389	62.891439	42.263558	6.321039	-7.874748	61.560903	41.359395
-0.885000	-4.367428	-0.612882	99.545687	-0.102993	-0.193763	-0.016748	89.061371	0.058152	-0.384415	16.025044	6.081273	-22.389538	-35.264577	37.460428	7.971394	47.984156	33.199123	21.963753	4.669842	48.526201	32.448979	11.146183	-4.788019	62.902655	42.266569	6.348481	-7.880223	61.581502	41.361756
-0.875000	-4.367428	-0.612882	99.545687	-0.102987	-0.193755	-0.016762	89.062024	0.073951	-0.381464	16.020153	6.080688	-22.390814	-35.270000	37.458480	7.971236	48.001661	33.202070	21.977451	4.656380	48.544218	32.454387	11.133132	-4.785777	62.906965	42.269864	6.368251	-7.888674	61.587845	41.361445
-0.865000	-4.367428	-0.612882	99.545687	-0.102988	-0.193745	-0.016781	89.058517	0.089502	-0.372024	16.015906	6.082149	-22.396125	-35.277095	37.442338	7.965643	48.017021	33.207079	21.982083	4.642583	48.553525	32.460032	11.104594	-4.779906	62.907204	42.274779	6.376655	-7.895322	61.586865	41.362154
-0.855000	-4.367428	-0.612882	99.545687	-0.102994	-0.193739	-0.016801	89.052078	0.103100	-0.360223	16.016235	6.080498	-22.406299	-35.287239	37.415221	7.956916	48.030170	33.213645	21.979690	4.630685	48.552400	32.464965	11.072837	-4.773500	62.908123	42.282328	6.374071	-7.896828	61.585122	41.365568
-0.845000	-4.367428	-0.612882	99.545687	-0.103002	-0.193738	-0.016819	89.043209	0.112324	-0.350575	16.023955	6.073254	-22.418148	-35.299277	37.384308	7.948851	48.041667	33.220771	21.976297	4.621860	48.544897	32.469652	11.050199	-4.769165	62.913702	42.292350	6.364615	-7.892184	61.586660	41.371158
-0.835000	-4.367428	-0.612882	99.545687	-0.103008	-0.193742	-0.016834	89.032484	0.116131	-0.346052	16.039272	6.062085	-22.426861	-35.310536	37.357361	7.944812	48.052612	33.227475	21.978105	4.616079	48.538717	32.475617	11.043907	-4.768033	62.924710	42.303240	6.354237	-7.882747	61.592136	41.376825
-0.825000	-4.367428	-0.612882	99.545687	-0.103012	-0.193750	-0.016847	89.021190	0.116163	-0.346854	16.059215	6.051456	-22.429519	-35.318859	37.339840	7.945872	48.063882	33.232974	21.987595	4.612452	48.540846	32.484116	11.053360	-4.769742	62.938258	42.312591	6.348093	-7.871126	61.599190	41.379891
-0.815000	-4.367428	-0.612882	99.545687	-0.103013	-0.193756	-0.016861	89.011436	0.116320	-0.350641	16.078665	6.045343	-22.427098	-35.324052	37.333727	7.950156	48.075520	33.236717	22.002284	4.609770	48.553989	32.495025	11.071551	-4.773137	62.949776	42.318480	6.348482	-7.859434	61.603976	41.378105
-0.805000	-4.367428	-0.612882	99.545687	-0.103015	-0.193755	-0.016878	89.005708	0.120943	-0.354038	16.092631	6.044351	-22.423601	-35.327762	37.338018	7.953804	48.086710	33.238436	22.016810	4.606928	48.575927	32.506852	11.089606	-4.776968	62.955984	42.320514	6.354419	-7.848063	61.603356	41.370440
-0.795000	-4.367428	-0.612882	99.545687	-0.103019	-0.193745	-0.016899	89.006140	0.132782	-0.354596	16.098542	6.045226	-22.423087	-35.332016	37.350092	7.952956	48.096320	33.238214	22.026690	4.603092	48.601694	32.517725	11.101675	-4.780172	62.956798	42.319933	6.362905	-7.835728	61.596805	41.357497
-0.785000	-4.367428	-0.612882	99.545687	-0.103026	-0.193727	-0.016923	89.013730	0.151929	-0.352161	16.097275	6.042919	-22.426791	-35.337574	37.367029	7.945558	48.103739	33.236539	22.031206	4.597727	48.626734	32.526565	11.107504	-4.781893	62.955071	42.318748	6.370979	-7.820660	61.586925	41.341308
-0.775000	-4.367428	-0.612882	99.545687	-0.103037	-0.193705	-0.016947	89.027700	0.175979	-0.348925	16.092392	6.033515	-22.432301	-35.343222	37.386177	7.932075	48.109571	33.234346	22.033638	4.590692	48.648964	32.533597	11.111606	-4.781559	62.954594	42.318502	6.377409	-7.802125	61.578178	41.324555
-0.765000	-4.367428	-0.612882	99.545687	-0.103048	-0.193684	-0.016967	89.045236	0.201035	-0.348000	16.088117	6.015894	-22.435199	-35.346386	37.404932	7.914970	48.115647	33.232906	22.038788	4.582496	48.668794	32.539974	11.119853	-4.779092	62.957603	42.319330	6.383171	-7.781327	61.574437	41.309498
-0.755000	-4.367428	-0.612882	99.545687	-0.103060	-0.193669	-0.016981	89.061956	0.222968	-0.351232	16.087257	5.991170	-22.431943	-35.344576	37.420334	7.897451	48.124065	33.233413	22.049381	4.574431	48.687510	32.546797	11.135763	-4.775043	62.962976	42.319675	6.390385	-7.760941	61.576598	41.297079
-0.745000	-4.367428	-0.612882	99.545687	-0.103073	-0.193660	-0.016990	89.073244	0.238527	-0.357513	16.090198	5.960860	-22.422166	-35.336857	37.429277	7.882121	48.135744	33.236365	22.063578	4.568234	48.705331	32.554162	11.158749	-4.770533	62.965939	42.316688	6.400142	-7.743336	61.581516	41.286590
-0.735000	-4.367428	-0.612882	99.545687	-0.103088	-0.193654	-0.016996	89.076127	0.246110	-0.362681	16.095388	5.925740	-22.409023	-35.324581	37.429595	7.870059	48.149564	33.241116	22.075224	4.565307	48.720519	32.560863	11.185185	-4.767022	62.959715	42.307274	6.410660	-7.728509	61.583086	41.276116
-0.725000	-4.367428	-0.612882	99.545687	-0.103109	-0.193647	-0.016999	89.070963	0.246062	-0.361156	16.100692	5.886575	-22.397365	-35.310896	37.421473	7.860830	48.162912	33.246034	22.076941	4.565974	48.730345	32.565102	11.211228	-4.766090	62.939011	42.289658	6.417509	-7.713313	61.575383	41.263644
-0.715000	-4.367428	-0.612882	99.545687	-0.103136	-0.193630	-0.017001	89.062307	0.240486	-0.348393	16.104469	5.845999	-22.390748	-35.299054	37.407952	7.853715	48.173351	33.249300	22.064479	4.569306	48.733597	32.566032	11.235238	-4.769229	62.904233	42.265058	6.416771	-7.693092	61.556513	41.248366
-0.705000	-4.367428	-0.612882	99.545687	-0.103167	-0.193599	-0.017000	89.058730	0.232720	-0.322630	16.105574	5.809698	-22.389007	-35.290267	37.393525	7.849556	48.180278	33.250002	22.039903	4.573584	48.733191	32.565277	11.257988	-4.777419	62.864221	42.238639	6.409999	-7.665399	61.530780	41.231309
-0.695000	-4.367428	-0.612882	99.545687	-0.103191	-0.193547	-0.016994	89.071577	0.226564	-0.284751	16.102618	5.785502	-22.387915	-35.282399	37.381321	7.851511	48.185486	33.248910	22.011651	4.577019	48.736930	32.567338	11.280520	-4.790327	62.835137	42.218734	6.407882	-7.633602	61.507178	41.214632
-0.685000	-4.367428	-0.612882	99.545687	-0.103199	-0.193465	-0.016978	89.112506	0.225196	-0.236148	16.093789	5.780625	-22.381154	-35.270508	37.370852	7.863124	48.192399	33.248487	21.991160	4.578312	48.755267	32.578197	11.301520	-4.805474	62.834658	42.213956	6.429277	-7.607494	61.494308	41.199799
-0.675000	-4.367428	-0.612882	99.545687	-0.103175	-0.193346	-0.016945	89.189727	0.229707	-0.175867	16.078223	5.798543	-22.363394	-35.249166	37.358235	7.884278	48.204516	33.251953	21.987598	4.576975	48.796503	32.602456	11.316831	-4.818274	62.873366	42.229028	6.494306	-7.599325	61.494493	41.185829
